<?xml version="1.0" standalone="no"?>
<!DOCTYPE svg PUBLIC "-//W3C//DTD SVG 20010904//EN"
 "http://www.w3.org/TR/2001/REC-SVG-20010904/DTD/svg10.dtd">
<svg version="1.0" xmlns="http://www.w3.org/2000/svg"
 width="500.000000pt" height="500.000000pt" viewBox="0 0 500.000000 500.000000"
 preserveAspectRatio="xMidYMid meet">
<metadata>
Created by potrace 1.14, written by Peter Selinger 2001-2017
</metadata>
<g transform="translate(0.000000,500.000000) scale(0.100000,-0.100000)"
fill="#000000" stroke="none">
<path d="M1810 3200 l0 -500 70 0 70 0 0 500 0 500 -70 0 -70 0 0 -500z"/>
<path d="M2460 3200 l0 -500 75 0 75 0 0 435 0 435 610 0 610 0 0 65 0 65
-685 0 -685 0 0 -500z"/>
<path d="M1734 2600 c-35 -14 -54 -50 -54 -103 0 -61 31 -97 85 -97 56 0 85
35 85 102 -1 56 -11 77 -47 96 -25 14 -40 14 -69 2z m74 -32 c27 -35 21 -120
-11 -140 -20 -13 -49 -9 -69 9 -20 18 -25 91 -8 124 12 22 71 27 88 7z"/>
<path d="M1568 2513 c-3 -83 -4 -88 -25 -91 -33 -5 -28 -22 5 -22 45 0 52 16
52 112 0 71 -3 88 -15 88 -11 0 -15 -19 -17 -87z"/>
<path d="M1940 2500 l0 -100 55 0 c42 0 60 5 76 21 22 22 19 55 -7 75 -12 10
-12 13 1 24 21 18 19 57 -4 70 -11 5 -42 10 -70 10 l-51 0 0 -100z m109 62
c14 -26 0 -42 -42 -49 -37 -6 -37 -6 -37 31 0 34 1 36 35 36 23 0 37 -6 44
-18z m5 -95 c14 -23 -15 -47 -56 -47 -25 0 -28 3 -28 36 0 34 1 35 36 32 22
-2 41 -10 48 -21z"/>
<path d="M2280 2500 c0 -82 3 -100 15 -100 11 0 15 12 15 45 l0 45 45 0 c25 0
45 5 45 10 0 6 -20 10 -45 10 -45 0 -45 0 -45 35 l0 35 50 0 c28 0 50 5 50 10
0 6 -28 10 -65 10 l-65 0 0 -100z"/>
<path d="M2490 2500 c0 -82 3 -100 15 -100 12 0 15 18 15 100 0 82 -3 100 -15
100 -12 0 -15 -18 -15 -100z"/>
<path d="M2610 2500 c0 -81 3 -100 15 -100 11 0 15 18 17 77 l3 77 50 -77 c28
-42 56 -77 63 -77 9 0 12 27 12 100 0 60 -4 100 -10 100 -6 0 -10 -30 -10 -70
0 -38 -3 -70 -7 -70 -5 0 -30 32 -56 70 -67 98 -77 94 -77 -30z"/>
<path d="M2870 2500 l0 -100 44 0 c33 0 52 7 75 26 27 22 31 32 31 75 0 70
-30 99 -100 99 l-50 0 0 -100z m106 59 c22 -24 24 -93 3 -115 -8 -7 -29 -16
-47 -20 l-32 -6 0 81 0 81 28 0 c17 0 37 -9 48 -21z"/>
<path d="M3110 2500 l0 -100 65 0 c78 0 88 18 13 22 -52 3 -53 4 -56 36 -3 32
-3 32 42 32 61 0 69 18 9 22 -46 3 -48 4 -51 36 l-3 32 50 0 c27 0 53 5 56 10
4 6 -18 10 -59 10 l-66 0 0 -100z"/>
<path d="M3320 2500 c0 -82 3 -100 15 -100 11 0 15 12 15 45 0 43 1 45 29 45
24 0 31 -6 45 -45 10 -25 24 -45 32 -45 14 0 8 24 -16 69 -7 14 -5 23 10 36
11 10 20 28 20 41 0 39 -26 54 -91 54 l-59 0 0 -100z m118 51 c4 -29 -12 -41
-55 -41 -31 0 -33 2 -33 36 l0 35 43 -3 c36 -3 43 -7 45 -27z"/>
<path d="M1810 1983 c0 -354 -9 -428 -58 -498 -16 -24 -47 -50 -77 -65 -44
-22 -63 -25 -160 -25 l-110 0 -99 48 c-54 26 -100 46 -102 45 -3 -4 -34 -124
-34 -136 0 -5 27 -21 60 -35 191 -83 419 -86 543 -7 25 16 62 51 81 77 76 105
96 239 96 661 l0 252 -70 0 -70 0 0 -317z"/>
<path d="M2462 1793 l3 -508 70 0 70 0 3 508 2 507 -75 0 -75 0 2 -507z"/>
</g>
</svg>
